<?xml version="1.0" encoding="utf-8"?>
<!-- Generator: Adobe Illustrator 25.1.0, SVG Export Plug-In . SVG Version: 6.00 Build 0)  -->
<svg version="1.1" id="Layer_1" xmlns="http://www.w3.org/2000/svg" xmlns:xlink="http://www.w3.org/1999/xlink" x="0px" y="0px"
	 viewBox="0 0 213.91 135.44" style="enable-background:new 0 0 213.91 135.44;" xml:space="preserve">
<style type="text/css">
	.st0{fill:#4B69B0;}
	.st1{fill:url(#SVGID_1_);}
	.st2{fill:url(#SVGID_2_);}
	.st3{fill:url(#SVGID_3_);}
	.st4{fill-rule:evenodd;clip-rule:evenodd;fill:#E83F3A;}
	.st5{fill:#E83F3A;}
	.st6{fill:#37B1E1;}
	.st7{fill:#0678B6;}
	.st8{fill:#2BA63A;}
	.st9{fill:#FFE100;}
	.st10{fill:#1D1D1B;}
	.st11{fill:#FFFFFF;}
</style>
<g>
	<path class="st11" d="M67.63,54.13c-0.02,0.4-0.06,0.75-0.06,1.07c0,8.27,0.01,26.14,0.01,26.14s34.41,0,36.27,0
		c0,2.69-3.2,13.5-13.33,20.38c-5.93,4.01-12.62,5.87-19.69,6.31c-4.99,0.32-9.88-0.17-14.68-1.71
		c-15.13-4.84-26.39-18.53-27.92-35.19c-0.39-4.11-0.11-8.22,0.81-12.28c4.49-19.7,23.17-34.32,44.53-31.17
		c9.48,1.4,14.94,5.34,19.91,9.59c6.55-6.56,13.03-13.03,19.7-19.72c-1.63-1.17-5.36-4.98-12.01-8.81C91.25,3,80.54,0.13,69.09,0
		c-2.17-0.02-4.33,0.11-6.49,0.21c-3.77,0.15-7.49,0.8-11.16,1.73C36.79,5.68,24.63,13.37,15.1,25.11
		C5.95,36.39,1.03,49.35,0.13,63.81c-0.39,6.13,0.08,12.23,1.44,18.23c3.81,16.78,12.6,30.32,26.49,40.48
		c10.75,7.89,22.87,12.07,36.16,12.81c7.47,0.4,14.9-0.29,22.2-2.19c13.58-3.55,24.83-10.63,33.31-21.9
		c12.26-16.32,15.22-37.23,11.6-57.1C110.04,54.13,88.88,54.13,67.63,54.13z"/>
	<polygon class="st11" points="213.24,55.01 190.29,55.01 190.29,32.07 190.29,31.39 189.6,31.39 172.48,31.39 171.79,31.39 
		171.79,32.07 171.79,55.01 148.84,55.01 148.18,55.01 148.18,55.68 148.18,72.81 148.18,73.5 148.84,73.5 171.79,73.5 
		171.79,96.47 171.79,97.13 172.48,97.13 189.6,97.13 190.29,97.13 190.29,96.47 190.29,73.5 213.24,73.5 213.91,73.5 213.91,72.81 
		213.91,55.68 213.91,55.01 	"/>
</g>
</svg>
