<?xml version="1.0" encoding="utf-8"?>
<!-- Generator: Adobe Illustrator 25.1.0, SVG Export Plug-In . SVG Version: 6.00 Build 0)  -->
<svg version="1.1" id="Layer_1" xmlns="http://www.w3.org/2000/svg" xmlns:xlink="http://www.w3.org/1999/xlink" x="0px" y="0px"
	 viewBox="0 0 184.2 169.22" style="enable-background:new 0 0 184.2 169.22;" xml:space="preserve">
<style type="text/css">
	.st0{fill:#4B69B0;}
	.st1{fill:url(#SVGID_1_);}
	.st2{fill:url(#SVGID_2_);}
	.st3{fill:url(#SVGID_3_);}
	.st4{fill-rule:evenodd;clip-rule:evenodd;fill:#E83F3A;}
	.st5{fill:#E83F3A;}
	.st6{fill:#37B1E1;}
	.st7{fill:#0678B6;}
	.st8{fill:#2BA63A;}
	.st9{fill:#FFE100;}
	.st10{fill:#1D1D1B;}
	.st11{fill:#FFFFFF;}
</style>
<g>
	<path class="st11" d="M73.62,61.85l-6.17,17.61h12.54l-6.17-17.59C73.75,61.86,73.69,61.85,73.62,61.85z"/>
	<path class="st11" d="M92.1,0C41.23,0,0,32.6,0,72.81c0,26.17,17.47,49.11,43.69,61.95c-1.93,7.19-6.97,26.06-7.99,30.09
		c-1.25,5.01,1.84,4.94,3.86,3.59c1.58-1.05,25.24-17.13,35.44-24.07c5.54,0.82,11.25,1.26,17.1,1.26c50.87,0,92.1-32.6,92.1-72.81
		C184.2,32.6,142.97,0,92.1,0z M46.77,92.79c0,1.18-0.48,2.33-1.32,3.16c-0.82,0.83-1.97,1.31-3.14,1.31h-0.98
		c-1.18,0-2.33-0.48-3.15-1.31c-0.84-0.84-1.32-1.99-1.32-3.16V60.53h-8.76c-2.53,0-4.58-2.05-4.58-4.58c0-2.53,2.05-4.58,4.58-4.58
		h26.93c2.53,0,4.58,2.05,4.58,4.58c0,2.53-2.05,4.58-4.58,4.58h-8.27V92.79z M90.86,97.02c-2.32,0.82-4.86-0.41-5.68-2.73
		l-2.28-6.52H64.53l-2.28,6.52c-0.82,2.32-3.36,3.54-5.68,2.73c-2.31-0.81-3.54-3.35-2.72-5.68l13.2-35.4
		c0.07-0.21,0.17-0.41,0.26-0.6c0.54-2.62,3.25-4.62,6.53-4.62c2.95,0,5.43,1.63,6.29,3.87c0.01,0.01,0.04,0.04,0.04,0.04
		l13.42,36.72C94.4,93.67,93.18,96.21,90.86,97.02z M119.76,96.96h-18.3c-2.3,0-4.16-1.86-4.16-4.16c0-0.27,0.03-0.54,0.08-0.79
		c-0.04-0.26-0.08-0.52-0.08-0.8V55.69c0-2.75,2.22-4.97,4.97-4.97c2.74,0,4.97,2.22,4.97,4.97v32.95h12.52
		c2.3,0,4.16,1.86,4.16,4.15C123.92,95.1,122.07,96.96,119.76,96.96z M158.9,96.38c-1.96,1.48-4.75,1.08-6.22-0.88l-13.2-17.32
		l-2.84,2.83v11.3c0,2.75-2.22,4.97-4.97,4.97c-2.75,0-4.97-2.22-4.97-4.97V55.69c0-2.75,2.23-4.97,4.97-4.97
		c2.74,0,4.97,2.22,4.97,4.97v12.94l15.61-15.61c1.71-1.71,4.48-1.71,6.19,0c1.71,1.71,1.71,4.48,0,6.18l-12.61,12.62l13.96,18.33
		C161.26,92.12,160.86,94.91,158.9,96.38z"/>
</g>
</svg>
